<svg width="150" height="42" viewBox="0 0 150 42" fill="none" xmlns="http://www.w3.org/2000/svg">
<path d="M55.4767 19.084C54.2074 19.084 53.2181 18.72 52.5087 17.992C51.7994 17.264 51.4447 16.2047 51.4447 14.814V9.2H52.4807V14.772C52.4807 15.9107 52.7374 16.76 53.2507 17.32C53.7641 17.88 54.5061 18.16 55.4767 18.16C56.4567 18.16 57.2034 17.88 57.7167 17.32C58.2301 16.76 58.4867 15.9107 58.4867 14.772V9.2H59.4947V14.814C59.4947 16.2047 59.1401 17.264 58.4307 17.992C57.7307 18.72 56.7461 19.084 55.4767 19.084ZM66.2006 11.58C66.8913 11.58 67.5166 11.7387 68.0766 12.056C68.6366 12.364 69.0753 12.8027 69.3926 13.372C69.71 13.9413 69.8686 14.59 69.8686 15.318C69.8686 16.0553 69.71 16.7087 69.3926 17.278C69.0753 17.8473 68.6366 18.2907 68.0766 18.608C67.526 18.916 66.9006 19.07 66.2006 19.07C65.6033 19.07 65.062 18.9487 64.5766 18.706C64.1006 18.454 63.7086 18.09 63.4006 17.614V21.716H62.4066V11.636H63.3586V13.092C63.6573 12.6067 64.0493 12.2333 64.5346 11.972C65.0293 11.7107 65.5846 11.58 66.2006 11.58ZM66.1306 18.188C66.644 18.188 67.1106 18.0713 67.5306 17.838C67.9506 17.5953 68.2773 17.2547 68.5106 16.816C68.7533 16.3773 68.8746 15.878 68.8746 15.318C68.8746 14.758 68.7533 14.2633 68.5106 13.834C68.2773 13.3953 67.9506 13.0547 67.5306 12.812C67.1106 12.5693 66.644 12.448 66.1306 12.448C65.608 12.448 65.1366 12.5693 64.7166 12.812C64.306 13.0547 63.9793 13.3953 63.7366 13.834C63.5033 14.2633 63.3866 14.758 63.3866 15.318C63.3866 15.878 63.5033 16.3773 63.7366 16.816C63.9793 17.2547 64.306 17.5953 64.7166 17.838C65.1366 18.0713 65.608 18.188 66.1306 18.188ZM79.437 18.552C79.2503 18.72 79.017 18.8507 78.737 18.944C78.4663 19.028 78.1816 19.07 77.883 19.07C77.1923 19.07 76.6603 18.8833 76.287 18.51C75.9136 18.1367 75.727 17.6093 75.727 16.928V12.476H74.411V11.636H75.727V10.026H76.721V11.636H78.961V12.476H76.721V16.872C76.721 17.3107 76.8283 17.6467 77.043 17.88C77.267 18.104 77.5843 18.216 77.995 18.216C78.2003 18.216 78.3963 18.1833 78.583 18.118C78.779 18.0527 78.947 17.9593 79.087 17.838L79.437 18.552ZM83.9967 19.07C83.2874 19.07 82.648 18.9113 82.0787 18.594C81.5094 18.2673 81.0614 17.8193 80.7347 17.25C80.408 16.6807 80.2447 16.0367 80.2447 15.318C80.2447 14.5993 80.408 13.9553 80.7347 13.386C81.0614 12.8167 81.5094 12.3733 82.0787 12.056C82.648 11.7387 83.2874 11.58 83.9967 11.58C84.706 11.58 85.3454 11.7387 85.9147 12.056C86.484 12.3733 86.9274 12.8167 87.2447 13.386C87.5714 13.9553 87.7347 14.5993 87.7347 15.318C87.7347 16.0367 87.5714 16.6807 87.2447 17.25C86.9274 17.8193 86.484 18.2673 85.9147 18.594C85.3454 18.9113 84.706 19.07 83.9967 19.07ZM83.9967 18.188C84.5194 18.188 84.986 18.0713 85.3967 17.838C85.8167 17.5953 86.1434 17.2547 86.3767 16.816C86.61 16.3773 86.7267 15.878 86.7267 15.318C86.7267 14.758 86.61 14.2587 86.3767 13.82C86.1434 13.3813 85.8167 13.0453 85.3967 12.812C84.986 12.5693 84.5194 12.448 83.9967 12.448C83.474 12.448 83.0027 12.5693 82.5827 12.812C82.172 13.0453 81.8454 13.3813 81.6027 13.82C81.3694 14.2587 81.2527 14.758 81.2527 15.318C81.2527 15.878 81.3694 16.3773 81.6027 16.816C81.8454 17.2547 82.172 17.5953 82.5827 17.838C83.0027 18.0713 83.474 18.188 83.9967 18.188ZM101.1 16.424H99.1401V19H98.1321V16.424H92.6021V15.696L97.7961 9.2H98.9161L93.9041 15.528H98.1601V13.26H99.1401V15.528H101.1V16.424ZM114.748 9.2V19H113.726V14.478H107.594V19H106.558V9.2H107.594V13.568H113.726V9.2H114.748ZM120.747 19.07C120.037 19.07 119.398 18.9113 118.829 18.594C118.259 18.2673 117.811 17.8193 117.485 17.25C117.158 16.6807 116.995 16.0367 116.995 15.318C116.995 14.5993 117.158 13.9553 117.485 13.386C117.811 12.8167 118.259 12.3733 118.829 12.056C119.398 11.7387 120.037 11.58 120.747 11.58C121.456 11.58 122.095 11.7387 122.665 12.056C123.234 12.3733 123.677 12.8167 123.995 13.386C124.321 13.9553 124.485 14.5993 124.485 15.318C124.485 16.0367 124.321 16.6807 123.995 17.25C123.677 17.8193 123.234 18.2673 122.665 18.594C122.095 18.9113 121.456 19.07 120.747 19.07ZM120.747 18.188C121.269 18.188 121.736 18.0713 122.147 17.838C122.567 17.5953 122.893 17.2547 123.127 16.816C123.36 16.3773 123.477 15.878 123.477 15.318C123.477 14.758 123.36 14.2587 123.127 13.82C122.893 13.3813 122.567 13.0453 122.147 12.812C121.736 12.5693 121.269 12.448 120.747 12.448C120.224 12.448 119.753 12.5693 119.333 12.812C118.922 13.0453 118.595 13.3813 118.353 13.82C118.119 14.2587 118.003 14.758 118.003 15.318C118.003 15.878 118.119 16.3773 118.353 16.816C118.595 17.2547 118.922 17.5953 119.333 17.838C119.753 18.0713 120.224 18.188 120.747 18.188ZM133.15 11.636V19H132.198V17.656C131.937 18.104 131.577 18.454 131.12 18.706C130.663 18.9487 130.14 19.07 129.552 19.07C128.591 19.07 127.83 18.804 127.27 18.272C126.719 17.7307 126.444 16.942 126.444 15.906V11.636H127.438V15.808C127.438 16.5827 127.629 17.1707 128.012 17.572C128.395 17.9733 128.941 18.174 129.65 18.174C130.425 18.174 131.036 17.9407 131.484 17.474C131.932 16.998 132.156 16.34 132.156 15.5V11.636H133.15ZM136.886 13.078C137.119 12.5833 137.465 12.21 137.922 11.958C138.389 11.706 138.963 11.58 139.644 11.58V12.546L139.406 12.532C138.631 12.532 138.025 12.77 137.586 13.246C137.147 13.722 136.928 14.3893 136.928 15.248V19H135.934V11.636H136.886V13.078ZM143.472 19.07C142.875 19.07 142.301 18.986 141.75 18.818C141.209 18.6407 140.784 18.4213 140.476 18.16L140.924 17.376C141.232 17.6187 141.62 17.8193 142.086 17.978C142.553 18.1273 143.038 18.202 143.542 18.202C144.214 18.202 144.709 18.0993 145.026 17.894C145.353 17.6793 145.516 17.3807 145.516 16.998C145.516 16.7273 145.428 16.5173 145.25 16.368C145.073 16.2093 144.849 16.0927 144.578 16.018C144.308 15.934 143.948 15.8547 143.5 15.78C142.903 15.668 142.422 15.556 142.058 15.444C141.694 15.3227 141.382 15.122 141.12 14.842C140.868 14.562 140.742 14.1747 140.742 13.68C140.742 13.064 140.999 12.56 141.512 12.168C142.026 11.776 142.74 11.58 143.654 11.58C144.13 11.58 144.606 11.6453 145.082 11.776C145.558 11.8973 145.95 12.0607 146.258 12.266L145.824 13.064C145.218 12.644 144.494 12.434 143.654 12.434C143.02 12.434 142.539 12.546 142.212 12.77C141.895 12.994 141.736 13.288 141.736 13.652C141.736 13.932 141.825 14.156 142.002 14.324C142.189 14.492 142.418 14.618 142.688 14.702C142.959 14.7767 143.332 14.856 143.808 14.94C144.396 15.052 144.868 15.164 145.222 15.276C145.577 15.388 145.88 15.5793 146.132 15.85C146.384 16.1207 146.51 16.494 146.51 16.97C146.51 17.614 146.24 18.1273 145.698 18.51C145.166 18.8833 144.424 19.07 143.472 19.07Z" fill="#212429"/>
<path d="M14 25C20.6274 25 26 19.6274 26 13C26 6.37258 20.6274 1 14 1C7.37258 1 2 6.37258 2 13C2 19.6274 7.37258 25 14 25Z" stroke="#212429" stroke-width="1.77528" stroke-linecap="round" stroke-linejoin="round"/>
<path d="M14.0002 5.80002V13L18.8002 15.4" stroke="#212429" stroke-width="1.77528" stroke-linecap="round" stroke-linejoin="round"/>
<line y1="41.5225" x2="149.775" y2="41.5225" stroke="#212429" stroke-width="0.88764"/>
</svg>
