<svg width="530" height="58" viewBox="0 0 530 58" fill="none" xmlns="http://www.w3.org/2000/svg">
<rect x="249" width="6" height="58" rx="3" fill="white"/>
<path d="M286.387 44.432C285.323 42.7147 284.501 40.7453 283.923 38.524C283.344 36.284 283.055 33.8853 283.055 31.328C283.055 28.7707 283.344 26.372 283.923 24.132C284.501 21.8733 285.323 19.904 286.387 18.224H288.935C287.815 20.184 286.993 22.2373 286.471 24.384C285.948 26.5307 285.687 28.8453 285.687 31.328C285.687 33.8107 285.948 36.1253 286.471 38.272C286.993 40.4187 287.815 42.472 288.935 44.432H286.387ZM304.248 30.32H299.152V35.332H296.8V30.32H291.704V28.108H296.8V23.068H299.152V28.108H304.248V30.32ZM320.89 36.564V39H306.806V37.096L314.786 29.396C315.756 28.4627 316.41 27.66 316.746 26.988C317.082 26.2973 317.25 25.6067 317.25 24.916C317.25 23.8893 316.886 23.096 316.158 22.536C315.448 21.9573 314.422 21.668 313.078 21.668C310.912 21.668 309.242 22.3773 308.066 23.796L306.162 22.144C306.927 21.2107 307.926 20.4827 309.158 19.96C310.408 19.4373 311.799 19.176 313.33 19.176C315.383 19.176 317.016 19.6707 318.23 20.66C319.443 21.6307 320.05 22.956 320.05 24.636C320.05 25.6813 319.826 26.6707 319.378 27.604C318.93 28.5373 318.08 29.6013 316.83 30.796L310.838 36.564H320.89ZM330.696 27.632C332.618 27.8187 334.084 28.416 335.092 29.424C336.1 30.4133 336.604 31.6827 336.604 33.232C336.604 34.352 336.324 35.3693 335.764 36.284C335.204 37.18 334.364 37.8987 333.244 38.44C332.142 38.9627 330.789 39.224 329.184 39.224C327.784 39.224 326.44 39.0187 325.152 38.608C323.864 38.1787 322.809 37.5907 321.988 36.844L323.276 34.632C323.948 35.2667 324.806 35.78 325.852 36.172C326.897 36.5453 328.008 36.732 329.184 36.732C330.64 36.732 331.769 36.424 332.572 35.808C333.393 35.192 333.804 34.3427 333.804 33.26C333.804 32.1773 333.402 31.3373 332.6 30.74C331.797 30.1427 330.584 29.844 328.96 29.844H327.392V27.884L332.32 21.836H322.884V19.4H335.82V21.304L330.696 27.632ZM356.267 34.184H352.543V39H349.827V34.184H338.935V32.224L348.959 19.4H351.983L342.379 31.776H349.911V27.52H352.543V31.776H356.267V34.184ZM357.498 44.432C358.618 42.472 359.439 40.4187 359.962 38.272C360.503 36.1253 360.774 33.8107 360.774 31.328C360.774 28.8453 360.503 26.5307 359.962 24.384C359.439 22.2373 358.618 20.184 357.498 18.224H360.046C361.128 19.904 361.959 21.864 362.538 24.104C363.116 26.344 363.406 28.752 363.406 31.328C363.406 33.8853 363.116 36.284 362.538 38.524C361.959 40.764 361.128 42.7333 360.046 44.432H357.498ZM386.91 28.724C388.03 29.1533 388.889 29.7693 389.486 30.572C390.083 31.3747 390.382 32.336 390.382 33.456C390.382 34.632 390.065 35.6587 389.43 36.536C388.795 37.3947 387.89 38.0573 386.714 38.524C385.538 38.9907 384.157 39.224 382.57 39.224C381.002 39.224 379.63 38.9907 378.454 38.524C377.297 38.0573 376.401 37.3947 375.766 36.536C375.131 35.6587 374.814 34.632 374.814 33.456C374.814 32.336 375.103 31.3747 375.682 30.572C376.279 29.7693 377.138 29.1533 378.258 28.724C377.362 28.2947 376.681 27.7253 376.214 27.016C375.747 26.3067 375.514 25.4667 375.514 24.496C375.514 23.4133 375.803 22.4707 376.382 21.668C376.979 20.8653 377.81 20.2493 378.874 19.82C379.938 19.3907 381.17 19.176 382.57 19.176C383.989 19.176 385.23 19.3907 386.294 19.82C387.377 20.2493 388.207 20.8653 388.786 21.668C389.383 22.4707 389.682 23.4133 389.682 24.496C389.682 25.448 389.439 26.288 388.954 27.016C388.487 27.7253 387.806 28.2947 386.91 28.724ZM382.57 21.444C381.245 21.444 380.199 21.7333 379.434 22.312C378.669 22.872 378.286 23.6373 378.286 24.608C378.286 25.5787 378.659 26.344 379.406 26.904C380.171 27.464 381.226 27.744 382.57 27.744C383.933 27.744 384.997 27.464 385.762 26.904C386.546 26.344 386.938 25.5787 386.938 24.608C386.938 23.6373 386.537 22.872 385.734 22.312C384.95 21.7333 383.895 21.444 382.57 21.444ZM382.57 36.956C384.119 36.956 385.342 36.6387 386.238 36.004C387.134 35.3507 387.582 34.4733 387.582 33.372C387.582 32.2893 387.134 31.44 386.238 30.824C385.342 30.1893 384.119 29.872 382.57 29.872C381.021 29.872 379.807 30.1893 378.93 30.824C378.053 31.44 377.614 32.2893 377.614 33.372C377.614 34.4733 378.053 35.3507 378.93 36.004C379.807 36.6387 381.021 36.956 382.57 36.956ZM399.022 19.4V39H396.25V21.836H391.826V19.4H399.022ZM410.813 27.632C412.736 27.8187 414.201 28.416 415.209 29.424C416.217 30.4133 416.721 31.6827 416.721 33.232C416.721 34.352 416.441 35.3693 415.881 36.284C415.321 37.18 414.481 37.8987 413.361 38.44C412.26 38.9627 410.906 39.224 409.301 39.224C407.901 39.224 406.557 39.0187 405.269 38.608C403.981 38.1787 402.926 37.5907 402.105 36.844L403.393 34.632C404.065 35.2667 404.924 35.78 405.969 36.172C407.014 36.5453 408.125 36.732 409.301 36.732C410.757 36.732 411.886 36.424 412.689 35.808C413.51 35.192 413.921 34.3427 413.921 33.26C413.921 32.1773 413.52 31.3373 412.717 30.74C411.914 30.1427 410.701 29.844 409.077 29.844H407.509V27.884L412.437 21.836H403.001V19.4H415.937V21.304L410.813 27.632ZM443.904 34.184H440.18V39H437.464V34.184H426.572V32.224L436.596 19.4H439.62L430.016 31.776H437.548V27.52H440.18V31.776H443.904V34.184ZM450.947 19.4V39H448.175V21.836H443.751V19.4H450.947ZM476.53 36.564V39H462.446V37.096L470.426 29.396C471.397 28.4627 472.05 27.66 472.386 26.988C472.722 26.2973 472.89 25.6067 472.89 24.916C472.89 23.8893 472.526 23.096 471.798 22.536C471.089 21.9573 470.062 21.668 468.718 21.668C466.553 21.668 464.882 22.3773 463.706 23.796L461.802 22.144C462.567 21.2107 463.566 20.4827 464.798 19.96C466.049 19.4373 467.439 19.176 468.97 19.176C471.023 19.176 472.657 19.6707 473.87 20.66C475.083 21.6307 475.69 22.956 475.69 24.636C475.69 25.6813 475.466 26.6707 475.018 27.604C474.57 28.5373 473.721 29.6013 472.47 30.796L466.478 36.564H476.53ZM492.608 36.564V39H478.524V37.096L486.504 29.396C487.475 28.4627 488.128 27.66 488.464 26.988C488.8 26.2973 488.968 25.6067 488.968 24.916C488.968 23.8893 488.604 23.096 487.876 22.536C487.167 21.9573 486.14 21.668 484.796 21.668C482.631 21.668 480.96 22.3773 479.784 23.796L477.88 22.144C478.646 21.2107 479.644 20.4827 480.876 19.96C482.127 19.4373 483.518 19.176 485.048 19.176C487.102 19.176 488.735 19.6707 489.948 20.66C491.162 21.6307 491.768 22.956 491.768 24.636C491.768 25.6813 491.544 26.6707 491.096 27.604C490.648 28.5373 489.799 29.6013 488.548 30.796L482.556 36.564H492.608ZM506.894 28.724C508.014 29.1533 508.873 29.7693 509.47 30.572C510.068 31.3747 510.366 32.336 510.366 33.456C510.366 34.632 510.049 35.6587 509.414 36.536C508.78 37.3947 507.874 38.0573 506.698 38.524C505.522 38.9907 504.141 39.224 502.554 39.224C500.986 39.224 499.614 38.9907 498.438 38.524C497.281 38.0573 496.385 37.3947 495.75 36.536C495.116 35.6587 494.798 34.632 494.798 33.456C494.798 32.336 495.088 31.3747 495.666 30.572C496.264 29.7693 497.122 29.1533 498.242 28.724C497.346 28.2947 496.665 27.7253 496.198 27.016C495.732 26.3067 495.498 25.4667 495.498 24.496C495.498 23.4133 495.788 22.4707 496.366 21.668C496.964 20.8653 497.794 20.2493 498.858 19.82C499.922 19.3907 501.154 19.176 502.554 19.176C503.973 19.176 505.214 19.3907 506.278 19.82C507.361 20.2493 508.192 20.8653 508.77 21.668C509.368 22.4707 509.666 23.4133 509.666 24.496C509.666 25.448 509.424 26.288 508.938 27.016C508.472 27.7253 507.79 28.2947 506.894 28.724ZM502.554 21.444C501.229 21.444 500.184 21.7333 499.418 22.312C498.653 22.872 498.27 23.6373 498.27 24.608C498.27 25.5787 498.644 26.344 499.39 26.904C500.156 27.464 501.21 27.744 502.554 27.744C503.917 27.744 504.981 27.464 505.746 26.904C506.53 26.344 506.922 25.5787 506.922 24.608C506.922 23.6373 506.521 22.872 505.718 22.312C504.934 21.7333 503.88 21.444 502.554 21.444ZM502.554 36.956C504.104 36.956 505.326 36.6387 506.222 36.004C507.118 35.3507 507.566 34.4733 507.566 33.372C507.566 32.2893 507.118 31.44 506.222 30.824C505.326 30.1893 504.104 29.872 502.554 29.872C501.005 29.872 499.792 30.1893 498.914 30.824C498.037 31.44 497.598 32.2893 497.598 33.372C497.598 34.4733 498.037 35.3507 498.914 36.004C499.792 36.6387 501.005 36.956 502.554 36.956ZM524.914 28.724C526.034 29.1533 526.893 29.7693 527.49 30.572C528.087 31.3747 528.386 32.336 528.386 33.456C528.386 34.632 528.069 35.6587 527.434 36.536C526.799 37.3947 525.894 38.0573 524.718 38.524C523.542 38.9907 522.161 39.224 520.574 39.224C519.006 39.224 517.634 38.9907 516.458 38.524C515.301 38.0573 514.405 37.3947 513.77 36.536C513.135 35.6587 512.818 34.632 512.818 33.456C512.818 32.336 513.107 31.3747 513.686 30.572C514.283 29.7693 515.142 29.1533 516.262 28.724C515.366 28.2947 514.685 27.7253 514.218 27.016C513.751 26.3067 513.518 25.4667 513.518 24.496C513.518 23.4133 513.807 22.4707 514.386 21.668C514.983 20.8653 515.814 20.2493 516.878 19.82C517.942 19.3907 519.174 19.176 520.574 19.176C521.993 19.176 523.234 19.3907 524.298 19.82C525.381 20.2493 526.211 20.8653 526.79 21.668C527.387 22.4707 527.686 23.4133 527.686 24.496C527.686 25.448 527.443 26.288 526.958 27.016C526.491 27.7253 525.81 28.2947 524.914 28.724ZM520.574 21.444C519.249 21.444 518.203 21.7333 517.438 22.312C516.673 22.872 516.29 23.6373 516.29 24.608C516.29 25.5787 516.663 26.344 517.41 26.904C518.175 27.464 519.23 27.744 520.574 27.744C521.937 27.744 523.001 27.464 523.766 26.904C524.55 26.344 524.942 25.5787 524.942 24.608C524.942 23.6373 524.541 22.872 523.738 22.312C522.954 21.7333 521.899 21.444 520.574 21.444ZM520.574 36.956C522.123 36.956 523.346 36.6387 524.242 36.004C525.138 35.3507 525.586 34.4733 525.586 33.372C525.586 32.2893 525.138 31.44 524.242 30.824C523.346 30.1893 522.123 29.872 520.574 29.872C519.025 29.872 517.811 30.1893 516.934 30.824C516.057 31.44 515.618 32.2893 515.618 33.372C515.618 34.4733 516.057 35.3507 516.934 36.004C517.811 36.6387 519.025 36.956 520.574 36.956Z" fill="white"/>
<path fill-rule="evenodd" clip-rule="evenodd" d="M6.32821 13.1667L31.6414 13.1667C33.3889 13.1667 34.8055 14.5845 34.8055 16.3334L34.8055 41.6668C34.8055 43.4157 33.3889 44.8334 31.6414 44.8334L6.32821 44.8334C4.5807 44.8334 3.16406 43.4157 3.16406 41.6668L3.16406 16.3334C3.16406 14.5845 4.5807 13.1667 6.32821 13.1667ZM6.32821 16.3334L6.3282 41.6667L31.6414 41.6667L31.6414 16.3334L6.32821 16.3334ZM17.6132 29.007L20.5669 29.007L20.5669 38.5001L23.731 38.5001L23.731 29.007L26.8673 29.007L26.8673 25.8404L23.731 25.8404L23.731 24.2501C23.731 23.3756 24.4393 22.6667 25.3131 22.6667L26.8951 22.6667L26.8951 19.5001L25.3131 19.5001C22.6918 19.5001 20.5669 21.6267 20.5669 24.2501L20.5669 25.8404L17.6132 25.8404L17.6132 29.007Z" fill="white"/>
<path fill-rule="evenodd" clip-rule="evenodd" d="M87.2642 13.1667L74.6077 13.1667C69.3651 13.1667 65.1152 17.42 65.1152 22.6667L65.1152 35.3334C65.1152 40.5801 69.3651 44.8334 74.6077 44.8334L87.2642 44.8334C92.5068 44.8334 96.7567 40.5801 96.7567 35.3334L96.7567 22.6668C96.7567 17.42 92.5068 13.1667 87.2642 13.1667ZM68.2794 22.6667C68.2794 19.1689 71.1126 16.3334 74.6077 16.3334L87.2642 16.3334C90.7593 16.3334 93.5925 19.1689 93.5925 22.6668L93.5925 35.3334C93.5925 38.8312 90.7593 41.6668 87.2642 41.6668L74.6077 41.6668C71.1126 41.6668 68.2794 38.8312 68.2794 35.3334L68.2794 22.6667ZM80.936 36.9168C76.5672 36.9168 73.0256 33.3723 73.0256 29.0001C73.0256 24.6278 76.5672 21.0834 80.936 21.0834C85.3047 21.0834 88.8463 24.6278 88.8463 29.0001C88.8463 33.3723 85.3047 36.9168 80.936 36.9168ZM80.936 33.7501C83.5572 33.7501 85.6822 31.6234 85.6822 29.0001C85.6822 26.3767 83.5572 24.2501 80.936 24.2501C78.3147 24.2501 76.1897 26.3767 76.1897 29.0001C76.1897 31.6234 78.3147 33.7501 80.936 33.7501ZM90.4284 21.0834C90.4284 21.9579 89.7201 22.6668 88.8463 22.6668C87.9726 22.6668 87.2642 21.9579 87.2642 21.0834C87.2642 20.209 87.9726 19.5001 88.8463 19.5001C89.7201 19.5001 90.4284 20.209 90.4284 21.0834Z" fill="white"/>
<path fill-rule="evenodd" clip-rule="evenodd" d="M157.314 17.1382L159.552 17.3998L158.546 19.4177C158.055 20.4018 157.564 21.3859 157.073 22.37C157.014 22.5784 156.912 22.7611 156.76 22.999C156.697 23.0985 156.481 23.4146 156.471 23.4298C156.414 23.5155 156.371 23.5831 156.341 23.6373L156.341 27.4192C156.341 37.0965 146.983 43.246 138.146 43.246C136.337 43.246 134.963 43.1593 133.39 42.8157C130.801 42.2503 128.874 41.1263 127.992 39.1619L127.085 37.1395L129.291 36.9364C131.286 36.7528 133.017 36.3723 134.345 35.8628C130.697 35.2756 128.653 33.6722 128.653 30.6608L128.653 29.0775L130.235 29.0775C130.583 29.0775 130.896 29.0493 131.177 28.9975C128.439 27.3592 127.067 24.7311 127.067 21.0858C127.067 20.9305 127.067 20.9305 127.066 20.7643C127.056 18.927 127.154 17.9452 127.657 16.6922C127.979 15.8891 128.445 15.1457 129.071 14.4646L130.265 13.1667L131.426 14.4943C135.251 18.8693 139.032 21.5235 142.893 21.8446C142.909 17.8076 145.958 14.7525 150.012 14.7525C151.903 14.7525 153.617 15.4705 154.964 16.7652C155.702 16.9169 156.485 17.0413 157.314 17.1382ZM153.816 19.7566L153.331 19.6467L152.996 19.2788C152.186 18.3894 151.17 17.9191 150.012 17.9191C147.698 17.9191 146.057 19.5696 146.057 21.8775C146.057 22.2546 146.047 22.4916 146 22.8031C145.813 24.0461 145.116 25.0441 143.684 25.0441C138.941 25.0441 134.662 22.5011 130.489 18.1578C130.274 18.8123 130.223 19.485 130.23 20.7466C130.231 20.9153 130.231 20.9153 130.232 21.0858C130.232 24.3285 131.544 26.1022 134.652 27.0908L135.755 27.4417L135.755 28.5998C135.755 30.0042 134.426 31.3262 132.48 31.9183C133.372 32.5954 135.196 32.9608 138.146 32.9608L139.728 32.9608L139.728 34.5441C139.728 36.8126 137.124 38.5888 133.189 39.5163C134.472 39.9097 136.181 40.0793 138.146 40.0793C145.446 40.0793 153.177 34.999 153.177 27.4191L153.177 23.4608C153.177 22.9956 153.311 22.5919 153.535 22.1721C153.623 22.0079 153.719 21.8514 153.838 21.673C153.86 21.6394 153.944 21.5176 154.009 21.4203L154.135 21.1693C154.338 20.7627 154.541 20.356 154.744 19.9494C154.429 19.8895 154.119 19.8253 153.816 19.7566Z" fill="white"/>
<path fill-rule="evenodd" clip-rule="evenodd" d="M192.18 13.1667L217.493 13.1667C219.24 13.1667 220.657 14.5845 220.657 16.3334L220.657 41.6668C220.657 43.4157 219.24 44.8334 217.493 44.8334L192.18 44.8334C190.432 44.8334 189.016 43.4157 189.016 41.6668L189.016 16.3334C189.016 14.5845 190.432 13.1667 192.18 13.1667ZM192.18 16.3334L192.18 41.6668L217.493 41.6668L217.493 16.3334L192.18 16.3334ZM206.418 24.2501C205.599 24.2501 204.734 24.5007 203.97 24.966L203.254 24.2501L201.672 24.2501L201.672 35.3334L204.836 35.3334L204.836 29.0001C204.836 28.0885 205.776 27.4168 206.418 27.4168L208 27.4168C208.643 27.4168 209.583 28.0885 209.583 29.0001L209.583 35.3334L212.747 35.3334L212.747 29.0001C212.747 26.0664 210.206 24.2501 208 24.2501L206.418 24.2501ZM198.508 22.6667C199.382 22.6667 200.09 21.9579 200.09 21.0834C200.09 20.209 199.382 19.5001 198.508 19.5001C197.634 19.5001 196.926 20.209 196.926 21.0834C196.926 21.9579 197.634 22.6667 198.508 22.6667ZM196.926 35.3334L200.09 35.3334L200.09 24.2501L196.926 24.2501L196.926 35.3334Z" fill="white"/>
</svg>
