<svg width="214" height="47" viewBox="0 0 214 47" fill="none" xmlns="http://www.w3.org/2000/svg">
<path d="M56.504 25.144C54.328 25.144 52.632 24.52 51.416 23.272C50.2 22.024 49.592 20.208 49.592 17.824V8.2H51.368V17.752C51.368 19.704 51.808 21.16 52.688 22.12C53.568 23.08 54.84 23.56 56.504 23.56C58.184 23.56 59.464 23.08 60.344 22.12C61.224 21.16 61.664 19.704 61.664 17.752V8.2H63.392V17.824C63.392 20.208 62.784 22.024 61.568 23.272C60.368 24.52 58.68 25.144 56.504 25.144ZM74.8878 12.28C76.0718 12.28 77.1438 12.552 78.1038 13.096C79.0638 13.624 79.8158 14.376 80.3598 15.352C80.9038 16.328 81.1758 17.44 81.1758 18.688C81.1758 19.952 80.9038 21.072 80.3598 22.048C79.8158 23.024 79.0638 23.784 78.1038 24.328C77.1598 24.856 76.0878 25.12 74.8878 25.12C73.8638 25.12 72.9358 24.912 72.1038 24.496C71.2878 24.064 70.6158 23.44 70.0878 22.624V29.656H68.3838V12.376H70.0158V14.872C70.5278 14.04 71.1998 13.4 72.0318 12.952C72.8798 12.504 73.8318 12.28 74.8878 12.28ZM74.7678 23.608C75.6478 23.608 76.4478 23.408 77.1678 23.008C77.8878 22.592 78.4478 22.008 78.8478 21.256C79.2638 20.504 79.4718 19.648 79.4718 18.688C79.4718 17.728 79.2638 16.88 78.8478 16.144C78.4478 15.392 77.8878 14.808 77.1678 14.392C76.4478 13.976 75.6478 13.768 74.7678 13.768C73.8718 13.768 73.0638 13.976 72.3438 14.392C71.6398 14.808 71.0798 15.392 70.6638 16.144C70.2638 16.88 70.0638 17.728 70.0638 18.688C70.0638 19.648 70.2638 20.504 70.6638 21.256C71.0798 22.008 71.6398 22.592 72.3438 23.008C73.0638 23.408 73.8718 23.608 74.7678 23.608ZM97.5787 24.232C97.2587 24.52 96.8587 24.744 96.3787 24.904C95.9147 25.048 95.4267 25.12 94.9147 25.12C93.7307 25.12 92.8187 24.8 92.1787 24.16C91.5387 23.52 91.2187 22.616 91.2187 21.448V13.816H88.9627V12.376H91.2187V9.616H92.9227V12.376H96.7627V13.816H92.9227V21.352C92.9227 22.104 93.1067 22.68 93.4747 23.08C93.8587 23.464 94.4027 23.656 95.1067 23.656C95.4587 23.656 95.7947 23.6 96.1147 23.488C96.4507 23.376 96.7387 23.216 96.9787 23.008L97.5787 24.232ZM105.395 25.12C104.179 25.12 103.083 24.848 102.107 24.304C101.131 23.744 100.363 22.976 99.8034 22C99.2434 21.024 98.9634 19.92 98.9634 18.688C98.9634 17.456 99.2434 16.352 99.8034 15.376C100.363 14.4 101.131 13.64 102.107 13.096C103.083 12.552 104.179 12.28 105.395 12.28C106.611 12.28 107.707 12.552 108.683 13.096C109.659 13.64 110.419 14.4 110.963 15.376C111.523 16.352 111.803 17.456 111.803 18.688C111.803 19.92 111.523 21.024 110.963 22C110.419 22.976 109.659 23.744 108.683 24.304C107.707 24.848 106.611 25.12 105.395 25.12ZM105.395 23.608C106.291 23.608 107.091 23.408 107.795 23.008C108.515 22.592 109.075 22.008 109.475 21.256C109.875 20.504 110.075 19.648 110.075 18.688C110.075 17.728 109.875 16.872 109.475 16.12C109.075 15.368 108.515 14.792 107.795 14.392C107.091 13.976 106.291 13.768 105.395 13.768C104.499 13.768 103.691 13.976 102.971 14.392C102.267 14.792 101.707 15.368 101.291 16.12C100.891 16.872 100.691 17.728 100.691 18.688C100.691 19.648 100.891 20.504 101.291 21.256C101.707 22.008 102.267 22.592 102.971 23.008C103.691 23.408 104.499 23.608 105.395 23.608ZM134.716 20.584H131.356V25H129.628V20.584H120.148V19.336L129.052 8.2H130.972L122.38 19.048H129.676V15.16H131.356V19.048H134.716V20.584ZM158.112 8.2V25H156.36V17.248H145.848V25H144.072V8.2H145.848V15.688H156.36V8.2H158.112ZM168.395 25.12C167.179 25.12 166.083 24.848 165.107 24.304C164.131 23.744 163.363 22.976 162.803 22C162.243 21.024 161.963 19.92 161.963 18.688C161.963 17.456 162.243 16.352 162.803 15.376C163.363 14.4 164.131 13.64 165.107 13.096C166.083 12.552 167.179 12.28 168.395 12.28C169.611 12.28 170.707 12.552 171.683 13.096C172.659 13.64 173.419 14.4 173.963 15.376C174.523 16.352 174.803 17.456 174.803 18.688C174.803 19.92 174.523 21.024 173.963 22C173.419 22.976 172.659 23.744 171.683 24.304C170.707 24.848 169.611 25.12 168.395 25.12ZM168.395 23.608C169.291 23.608 170.091 23.408 170.795 23.008C171.515 22.592 172.075 22.008 172.475 21.256C172.875 20.504 173.075 19.648 173.075 18.688C173.075 17.728 172.875 16.872 172.475 16.12C172.075 15.368 171.515 14.792 170.795 14.392C170.091 13.976 169.291 13.768 168.395 13.768C167.499 13.768 166.691 13.976 165.971 14.392C165.267 14.792 164.707 15.368 164.291 16.12C163.891 16.872 163.691 17.728 163.691 18.688C163.691 19.648 163.891 20.504 164.291 21.256C164.707 22.008 165.267 22.592 165.971 23.008C166.691 23.408 167.499 23.608 168.395 23.608ZM189.658 12.376V25H188.026V22.696C187.578 23.464 186.962 24.064 186.178 24.496C185.394 24.912 184.498 25.12 183.49 25.12C181.842 25.12 180.538 24.664 179.578 23.752C178.634 22.824 178.162 21.472 178.162 19.696V12.376H179.866V19.528C179.866 20.856 180.194 21.864 180.85 22.552C181.506 23.24 182.442 23.584 183.658 23.584C184.986 23.584 186.034 23.184 186.802 22.384C187.57 21.568 187.954 20.44 187.954 19V12.376H189.658ZM196.063 14.848C196.463 14 197.055 13.36 197.839 12.928C198.639 12.496 199.623 12.28 200.791 12.28V13.936L200.383 13.912C199.055 13.912 198.015 14.32 197.263 15.136C196.511 15.952 196.135 17.096 196.135 18.568V25H194.431V12.376H196.063V14.848ZM207.354 25.12C206.33 25.12 205.346 24.976 204.402 24.688C203.474 24.384 202.746 24.008 202.218 23.56L202.986 22.216C203.514 22.632 204.178 22.976 204.978 23.248C205.778 23.504 206.61 23.632 207.474 23.632C208.626 23.632 209.474 23.456 210.018 23.104C210.578 22.736 210.858 22.224 210.858 21.568C210.858 21.104 210.706 20.744 210.402 20.488C210.098 20.216 209.714 20.016 209.25 19.888C208.786 19.744 208.17 19.608 207.402 19.48C206.378 19.288 205.554 19.096 204.93 18.904C204.306 18.696 203.77 18.352 203.322 17.872C202.89 17.392 202.674 16.728 202.674 15.88C202.674 14.824 203.114 13.96 203.994 13.288C204.874 12.616 206.098 12.28 207.666 12.28C208.482 12.28 209.298 12.392 210.114 12.616C210.93 12.824 211.602 13.104 212.13 13.456L211.386 14.824C210.346 14.104 209.106 13.744 207.666 13.744C206.578 13.744 205.754 13.936 205.194 14.32C204.65 14.704 204.378 15.208 204.378 15.832C204.378 16.312 204.53 16.696 204.834 16.984C205.154 17.272 205.546 17.488 206.01 17.632C206.474 17.76 207.114 17.896 207.93 18.04C208.938 18.232 209.746 18.424 210.354 18.616C210.962 18.808 211.482 19.136 211.914 19.6C212.346 20.064 212.562 20.704 212.562 21.52C212.562 22.624 212.098 23.504 211.17 24.16C210.258 24.8 208.986 25.12 207.354 25.12Z" fill="#212429"/>
<path d="M16 31C24.2843 31 31 24.2843 31 16C31 7.71573 24.2843 1 16 1C7.71573 1 1 7.71573 1 16C1 24.2843 7.71573 31 16 31Z" stroke="#212429" stroke-width="2" stroke-linecap="round" stroke-linejoin="round"/>
<path d="M16 7V16L22 19" stroke="#212429" stroke-width="2" stroke-linecap="round" stroke-linejoin="round"/>
<line x1="17" y1="46.5" x2="197" y2="46.5" stroke="#212429"/>
</svg>
