<svg width="75" height="75" viewBox="0 0 75 75" fill="none" xmlns="http://www.w3.org/2000/svg">
<g filter="url(#filter0_d)">
<circle cx="37.5" cy="33.5" r="33.5" transform="rotate(-180 37.5 33.5)" fill="white"/>
<path d="M21.2929 33.2929C20.9024 33.6834 20.9024 34.3166 21.2929 34.7071L27.6569 41.0711C28.0474 41.4616 28.6805 41.4616 29.0711 41.0711C29.4616 40.6805 29.4616 40.0474 29.0711 39.6569L23.4142 34L29.0711 28.3431C29.4616 27.9526 29.4616 27.3195 29.0711 26.9289C28.6805 26.5384 28.0474 26.5384 27.6569 26.9289L21.2929 33.2929ZM53 33L22 33L22 35L53 35L53 33Z" fill="#212429"/>
</g>
<defs>
<filter id="filter0_d" x="0" y="0" width="75" height="75" filterUnits="userSpaceOnUse" color-interpolation-filters="sRGB">
<feFlood flood-opacity="0" result="BackgroundImageFix"/>
<feColorMatrix in="SourceAlpha" type="matrix" values="0 0 0 0 0 0 0 0 0 0 0 0 0 0 0 0 0 0 127 0"/>
<feOffset dy="4"/>
<feGaussianBlur stdDeviation="2"/>
<feColorMatrix type="matrix" values="0 0 0 0 0 0 0 0 0 0 0 0 0 0 0 0 0 0 0.25 0"/>
<feBlend mode="normal" in2="BackgroundImageFix" result="effect1_dropShadow"/>
<feBlend mode="normal" in="SourceGraphic" in2="effect1_dropShadow" result="shape"/>
</filter>
</defs>
</svg>
