<svg width="205" height="46" viewBox="0 0 205 46" fill="none" xmlns="http://www.w3.org/2000/svg">
<circle cx="15" cy="15" r="14.25" stroke="#333333" stroke-width="1.5"/>
<path d="M14.7363 3.6842V26.8421" stroke="#212429" stroke-width="1.05263" stroke-linecap="round" stroke-linejoin="round"/>
<path d="M19.9998 7.89478H12.1051C11.128 7.89478 10.1909 8.28293 9.49998 8.97386C8.80906 9.66478 8.4209 10.6019 8.4209 11.579C8.4209 12.5561 8.80906 13.4932 9.49998 14.1841C10.1909 14.875 11.128 15.2632 12.1051 15.2632H17.3683C18.3454 15.2632 19.2825 15.6514 19.9734 16.3423C20.6643 17.0332 21.0525 17.9703 21.0525 18.9474C21.0525 19.9245 20.6643 20.8616 19.9734 21.5525C19.2825 22.2435 18.3454 22.6316 17.3683 22.6316H8.4209" stroke="#212429" stroke-width="1.05263" stroke-linecap="round" stroke-linejoin="round"/>
<path d="M59.632 19.56C59.632 20.792 59.16 21.84 58.216 22.704C57.272 23.552 55.888 24.024 54.064 24.12V26.88H52.864V24.144C51.696 24.08 50.592 23.856 49.552 23.472C48.528 23.072 47.72 22.568 47.128 21.96L47.824 20.592C48.384 21.136 49.112 21.592 50.008 21.96C50.92 22.328 51.872 22.544 52.864 22.608V16.296C51.76 16.024 50.84 15.736 50.104 15.432C49.368 15.112 48.752 14.656 48.256 14.064C47.776 13.456 47.536 12.656 47.536 11.664C47.536 10.432 47.984 9.4 48.88 8.568C49.776 7.72 51.104 7.224 52.864 7.08V4.32H54.064V7.056C54.976 7.088 55.856 7.24 56.704 7.512C57.568 7.768 58.312 8.112 58.936 8.544L58.336 9.96C57.68 9.544 56.984 9.216 56.248 8.976C55.512 8.736 54.784 8.6 54.064 8.568V14.928C55.248 15.216 56.216 15.512 56.968 15.816C57.72 16.104 58.352 16.552 58.864 17.16C59.376 17.768 59.632 18.568 59.632 19.56ZM49.288 11.616C49.288 12.448 49.592 13.08 50.2 13.512C50.824 13.944 51.712 14.312 52.864 14.616V8.616C51.68 8.712 50.784 9.04 50.176 9.6C49.584 10.144 49.288 10.816 49.288 11.616ZM54.064 22.608C55.328 22.512 56.28 22.2 56.92 21.672C57.56 21.144 57.88 20.472 57.88 19.656C57.88 18.792 57.552 18.144 56.896 17.712C56.24 17.28 55.296 16.912 54.064 16.608V22.608ZM73.6353 7.2V8.424L66.6033 24H64.7313L71.6433 8.736H63.0033V11.88H61.2993V7.2H73.6353ZM82.1393 24.144C80.8433 24.144 79.6833 23.8 78.6593 23.112C77.6513 22.424 76.8593 21.44 76.2833 20.16C75.7233 18.864 75.4433 17.344 75.4433 15.6C75.4433 13.856 75.7233 12.344 76.2833 11.064C76.8593 9.768 77.6513 8.776 78.6593 8.088C79.6833 7.4 80.8433 7.056 82.1393 7.056C83.4353 7.056 84.5873 7.4 85.5953 8.088C86.6193 8.776 87.4193 9.768 87.9953 11.064C88.5713 12.344 88.8593 13.856 88.8593 15.6C88.8593 17.344 88.5713 18.864 87.9953 20.16C87.4193 21.44 86.6193 22.424 85.5953 23.112C84.5873 23.8 83.4353 24.144 82.1393 24.144ZM82.1393 22.56C83.1153 22.56 83.9713 22.288 84.7073 21.744C85.4593 21.2 86.0433 20.408 86.4593 19.368C86.8753 18.328 87.0833 17.072 87.0833 15.6C87.0833 14.128 86.8753 12.872 86.4593 11.832C86.0433 10.792 85.4593 10 84.7073 9.456C83.9713 8.912 83.1153 8.64 82.1393 8.64C81.1633 8.64 80.2993 8.912 79.5473 9.456C78.8113 10 78.2353 10.792 77.8193 11.832C77.4033 12.872 77.1953 14.128 77.1953 15.6C77.1953 17.072 77.4033 18.328 77.8193 19.368C78.2353 20.408 78.8113 21.2 79.5473 21.744C80.2993 22.288 81.1633 22.56 82.1393 22.56ZM105.391 7.2C107.535 7.2 109.215 7.712 110.431 8.736C111.647 9.76 112.255 11.168 112.255 12.96C112.255 14.752 111.647 16.16 110.431 17.184C109.215 18.192 107.535 18.696 105.391 18.696H100.879V24H99.1032V7.2H105.391ZM105.343 17.136C107.007 17.136 108.279 16.776 109.159 16.056C110.039 15.32 110.479 14.288 110.479 12.96C110.479 11.6 110.039 10.56 109.159 9.84C108.279 9.104 107.007 8.736 105.343 8.736H100.879V17.136H105.343ZM126.657 18.216H116.097C116.193 19.528 116.697 20.592 117.609 21.408C118.521 22.208 119.673 22.608 121.065 22.608C121.849 22.608 122.569 22.472 123.225 22.2C123.881 21.912 124.449 21.496 124.929 20.952L125.889 22.056C125.329 22.728 124.625 23.24 123.777 23.592C122.945 23.944 122.025 24.12 121.017 24.12C119.721 24.12 118.569 23.848 117.561 23.304C116.569 22.744 115.793 21.976 115.233 21C114.673 20.024 114.393 18.92 114.393 17.688C114.393 16.456 114.657 15.352 115.185 14.376C115.729 13.4 116.465 12.64 117.393 12.096C118.337 11.552 119.393 11.28 120.561 11.28C121.729 11.28 122.777 11.552 123.705 12.096C124.633 12.64 125.361 13.4 125.889 14.376C126.417 15.336 126.681 16.44 126.681 17.688L126.657 18.216ZM120.561 12.744C119.345 12.744 118.321 13.136 117.489 13.92C116.673 14.688 116.209 15.696 116.097 16.944H125.049C124.937 15.696 124.465 14.688 123.633 13.92C122.817 13.136 121.793 12.744 120.561 12.744ZM131.781 13.848C132.181 13 132.773 12.36 133.557 11.928C134.357 11.496 135.341 11.28 136.509 11.28V12.936L136.101 12.912C134.773 12.912 133.733 13.32 132.981 14.136C132.229 14.952 131.853 16.096 131.853 17.568V24H130.149V11.376H131.781V13.848ZM160.464 7.2V24H158.712V16.248H148.2V24H146.424V7.2H148.2V14.688H158.712V7.2H160.464ZM170.747 24.12C169.531 24.12 168.435 23.848 167.459 23.304C166.483 22.744 165.715 21.976 165.155 21C164.595 20.024 164.315 18.92 164.315 17.688C164.315 16.456 164.595 15.352 165.155 14.376C165.715 13.4 166.483 12.64 167.459 12.096C168.435 11.552 169.531 11.28 170.747 11.28C171.963 11.28 173.059 11.552 174.035 12.096C175.011 12.64 175.771 13.4 176.315 14.376C176.875 15.352 177.155 16.456 177.155 17.688C177.155 18.92 176.875 20.024 176.315 21C175.771 21.976 175.011 22.744 174.035 23.304C173.059 23.848 171.963 24.12 170.747 24.12ZM170.747 22.608C171.643 22.608 172.443 22.408 173.147 22.008C173.867 21.592 174.427 21.008 174.827 20.256C175.227 19.504 175.427 18.648 175.427 17.688C175.427 16.728 175.227 15.872 174.827 15.12C174.427 14.368 173.867 13.792 173.147 13.392C172.443 12.976 171.643 12.768 170.747 12.768C169.851 12.768 169.043 12.976 168.323 13.392C167.619 13.792 167.059 14.368 166.643 15.12C166.243 15.872 166.043 16.728 166.043 17.688C166.043 18.648 166.243 19.504 166.643 20.256C167.059 21.008 167.619 21.592 168.323 22.008C169.043 22.408 169.851 22.608 170.747 22.608ZM192.01 11.376V24H190.378V21.696C189.93 22.464 189.314 23.064 188.53 23.496C187.746 23.912 186.85 24.12 185.842 24.12C184.194 24.12 182.89 23.664 181.93 22.752C180.986 21.824 180.514 20.472 180.514 18.696V11.376H182.218V18.528C182.218 19.856 182.546 20.864 183.202 21.552C183.858 22.24 184.794 22.584 186.01 22.584C187.338 22.584 188.386 22.184 189.154 21.384C189.922 20.568 190.306 19.44 190.306 18V11.376H192.01ZM198.414 13.848C198.814 13 199.406 12.36 200.19 11.928C200.99 11.496 201.974 11.28 203.142 11.28V12.936L202.734 12.912C201.406 12.912 200.366 13.32 199.614 14.136C198.862 14.952 198.486 16.096 198.486 17.568V24H196.782V11.376H198.414V13.848Z" fill="#212429"/>
<line x1="12" y1="45.5" x2="192" y2="45.5" stroke="#212429"/>
</svg>
